<svg xmlns="http://www.w3.org/2000/svg" viewBox="0 0 80 80"><title>wlm-icon-register-black</title><path d="M31.49,45.48c-13.13,1.43-17.28,6.73-17.28,13.05v7" fill="none" stroke="#1d1d1b" stroke-linecap="round" stroke-linejoin="round" stroke-width="3"/><path d="M63.22,65.48v-7c0-6.32-3.5-11.61-16.42-13.05" fill="none" stroke="#1d1d1b" stroke-linecap="round" stroke-linejoin="round" stroke-width="3"/><path d="M46.64,43c.11,1.12.16,2.31.16,3.58,0,2.42-4.55,8.92-7.65,8.92-2.91,0-7.66-6.5-7.66-8.92a37.84,37.84,0,0,1,.19-3.82" fill="none" stroke="#1d1d1b" stroke-linecap="round" stroke-linejoin="round" stroke-width="3"/><path d="M52.33,31.68c0,7.28-7.76,15-13.18,15C34.42,46.64,26,39,26,31.68s.2-16.74,13.18-16.74C52.33,14.94,52.33,24.4,52.33,31.68Z" fill="none" stroke="#1d1d1b" stroke-linecap="round" stroke-linejoin="round" stroke-width="3"/><polyline points="62.59 14.52 62.59 17.72 59.4 17.72" fill="none" stroke="#1d1d1b" stroke-linecap="round" stroke-linejoin="round" stroke-width="3"/><polyline points="62.59 20.91 62.59 17.72 65.79 17.72" fill="none" stroke="#1d1d1b" stroke-linecap="round" stroke-linejoin="round" stroke-width="3"/></svg>